<svg width="1363" height="163" viewBox="0 0 1363 163" fill="none" xmlns="http://www.w3.org/2000/svg">
<path d="M0 15C0 6.71573 6.71573 0 15 0H37V163H15C6.71573 163 0 156.284 0 148V15Z" fill="#424242"/>
<rect width="1097" height="163" transform="translate(37)" fill="#F0F0F0"/>
<path d="M101.906 53.9219L94.3945 51.2383V48.0859L104.602 52.375V54.6367L101.906 53.9219ZM94.3945 56.1719L101.918 53.4297L104.602 52.7852V55.0352L94.3945 59.3242V56.1719ZM119.543 54.918H115.195V52.1758H119.543C120.215 52.1758 120.762 52.0664 121.184 51.8477C121.605 51.6211 121.914 51.3086 122.109 50.9102C122.305 50.5117 122.402 50.0625 122.402 49.5625C122.402 49.0547 122.305 48.582 122.109 48.1445C121.914 47.707 121.605 47.3555 121.184 47.0898C120.762 46.8242 120.215 46.6914 119.543 46.6914H116.414V61H112.898V43.9375H119.543C120.879 43.9375 122.023 44.1797 122.977 44.6641C123.938 45.1406 124.672 45.8008 125.18 46.6445C125.688 47.4883 125.941 48.4531 125.941 49.5391C125.941 50.6406 125.688 51.5938 125.18 52.3984C124.672 53.2031 123.938 53.8242 122.977 54.2617C122.023 54.6992 120.879 54.918 119.543 54.918ZM131.531 51.0859V61H128.156V48.3203H131.332L131.531 51.0859ZM135.352 48.2383L135.293 51.3672C135.129 51.3438 134.93 51.3242 134.695 51.3086C134.469 51.2852 134.262 51.2734 134.074 51.2734C133.598 51.2734 133.184 51.3359 132.832 51.4609C132.488 51.5781 132.199 51.7539 131.965 51.9883C131.738 52.2227 131.566 52.5078 131.449 52.8438C131.34 53.1797 131.277 53.5625 131.262 53.9922L130.582 53.7812C130.582 52.9609 130.664 52.207 130.828 51.5195C130.992 50.8242 131.23 50.2188 131.543 49.7031C131.863 49.1875 132.254 48.7891 132.715 48.5078C133.176 48.2266 133.703 48.0859 134.297 48.0859C134.484 48.0859 134.676 48.1016 134.871 48.1328C135.066 48.1562 135.227 48.1914 135.352 48.2383ZM136.055 54.7891V54.543C136.055 53.6133 136.188 52.7578 136.453 51.9766C136.719 51.1875 137.105 50.5039 137.613 49.9258C138.121 49.3477 138.746 48.8984 139.488 48.5781C140.23 48.25 141.082 48.0859 142.043 48.0859C143.004 48.0859 143.859 48.25 144.609 48.5781C145.359 48.8984 145.988 49.3477 146.496 49.9258C147.012 50.5039 147.402 51.1875 147.668 51.9766C147.934 52.7578 148.066 53.6133 148.066 54.543V54.7891C148.066 55.7109 147.934 56.5664 147.668 57.3555C147.402 58.1367 147.012 58.8203 146.496 59.4062C145.988 59.9844 145.363 60.4336 144.621 60.7539C143.879 61.0742 143.027 61.2344 142.066 61.2344C141.105 61.2344 140.25 61.0742 139.5 60.7539C138.758 60.4336 138.129 59.9844 137.613 59.4062C137.105 58.8203 136.719 58.1367 136.453 57.3555C136.188 56.5664 136.055 55.7109 136.055 54.7891ZM139.43 54.543V54.7891C139.43 55.3203 139.477 55.8164 139.57 56.2773C139.664 56.7383 139.812 57.1445 140.016 57.4961C140.227 57.8398 140.5 58.1094 140.836 58.3047C141.172 58.5 141.582 58.5977 142.066 58.5977C142.535 58.5977 142.938 58.5 143.273 58.3047C143.609 58.1094 143.879 57.8398 144.082 57.4961C144.285 57.1445 144.434 56.7383 144.527 56.2773C144.629 55.8164 144.68 55.3203 144.68 54.7891V54.543C144.68 54.0273 144.629 53.543 144.527 53.0898C144.434 52.6289 144.281 52.2227 144.07 51.8711C143.867 51.5117 143.598 51.2305 143.262 51.0273C142.926 50.8242 142.52 50.7227 142.043 50.7227C141.566 50.7227 141.16 50.8242 140.824 51.0273C140.496 51.2305 140.227 51.5117 140.016 51.8711C139.812 52.2227 139.664 52.6289 139.57 53.0898C139.477 53.543 139.43 54.0273 139.43 54.543ZM150.328 48.3203H153.715V61.7617C153.715 62.6992 153.543 63.4922 153.199 64.1406C152.855 64.7891 152.359 65.2812 151.711 65.6172C151.062 65.9531 150.277 66.1211 149.355 66.1211C149.066 66.1211 148.785 66.1055 148.512 66.0742C148.23 66.043 147.941 65.9922 147.645 65.9219L147.656 63.332C147.844 63.3633 148.027 63.3867 148.207 63.4023C148.379 63.4258 148.555 63.4375 148.734 63.4375C149.086 63.4375 149.379 63.3789 149.613 63.2617C149.848 63.1445 150.023 62.9609 150.141 62.7109C150.266 62.4688 150.328 62.1523 150.328 61.7617V48.3203ZM150.059 45.0156C150.059 44.5234 150.23 44.1172 150.574 43.7969C150.926 43.4766 151.387 43.3164 151.957 43.3164C152.535 43.3164 152.996 43.4766 153.34 43.7969C153.684 44.1172 153.855 44.5234 153.855 45.0156C153.855 45.5078 153.684 45.9141 153.34 46.2344C152.996 46.5547 152.535 46.7148 151.957 46.7148C151.387 46.7148 150.926 46.5547 150.574 46.2344C150.23 45.9141 150.059 45.5078 150.059 45.0156ZM162.234 61.2344C161.25 61.2344 160.367 61.0781 159.586 60.7656C158.805 60.4453 158.141 60.0039 157.594 59.4414C157.055 58.8789 156.641 58.2266 156.352 57.4844C156.062 56.7344 155.918 55.9375 155.918 55.0938V54.625C155.918 53.6641 156.055 52.7852 156.328 51.9883C156.602 51.1914 156.992 50.5 157.5 49.9141C158.016 49.3281 158.641 48.8789 159.375 48.5664C160.109 48.2461 160.938 48.0859 161.859 48.0859C162.758 48.0859 163.555 48.2344 164.25 48.5312C164.945 48.8281 165.527 49.25 165.996 49.7969C166.473 50.3438 166.832 51 167.074 51.7656C167.316 52.5234 167.438 53.3672 167.438 54.2969V55.7031H157.359V53.4531H164.121V53.1953C164.121 52.7266 164.035 52.3086 163.863 51.9414C163.699 51.5664 163.449 51.2695 163.113 51.0508C162.777 50.832 162.348 50.7227 161.824 50.7227C161.379 50.7227 160.996 50.8203 160.676 51.0156C160.355 51.2109 160.094 51.4844 159.891 51.8359C159.695 52.1875 159.547 52.6016 159.445 53.0781C159.352 53.5469 159.305 54.0625 159.305 54.625V55.0938C159.305 55.6016 159.375 56.0703 159.516 56.5C159.664 56.9297 159.871 57.3008 160.137 57.6133C160.41 57.9258 160.738 58.168 161.121 58.3398C161.512 58.5117 161.953 58.5977 162.445 58.5977C163.055 58.5977 163.621 58.4805 164.145 58.2461C164.676 58.0039 165.133 57.6406 165.516 57.1562L167.156 58.9375C166.891 59.3203 166.527 59.6875 166.066 60.0391C165.613 60.3906 165.066 60.6797 164.426 60.9062C163.785 61.125 163.055 61.2344 162.234 61.2344ZM174.598 58.5977C175.012 58.5977 175.379 58.5195 175.699 58.3633C176.02 58.1992 176.27 57.9727 176.449 57.6836C176.637 57.3867 176.734 57.0391 176.742 56.6406H179.918C179.91 57.5312 179.672 58.3242 179.203 59.0195C178.734 59.707 178.105 60.25 177.316 60.6484C176.527 61.0391 175.645 61.2344 174.668 61.2344C173.684 61.2344 172.824 61.0703 172.09 60.7422C171.363 60.4141 170.758 59.9609 170.273 59.3828C169.789 58.7969 169.426 58.1172 169.184 57.3438C168.941 56.5625 168.82 55.7266 168.82 54.8359V54.4961C168.82 53.5977 168.941 52.7617 169.184 51.9883C169.426 51.207 169.789 50.5273 170.273 49.9492C170.758 49.3633 171.363 48.9062 172.09 48.5781C172.816 48.25 173.668 48.0859 174.645 48.0859C175.684 48.0859 176.594 48.2852 177.375 48.6836C178.164 49.082 178.781 49.6523 179.227 50.3945C179.68 51.1289 179.91 52 179.918 53.0078H176.742C176.734 52.5859 176.645 52.2031 176.473 51.8594C176.309 51.5156 176.066 51.2422 175.746 51.0391C175.434 50.8281 175.047 50.7227 174.586 50.7227C174.094 50.7227 173.691 50.8281 173.379 51.0391C173.066 51.2422 172.824 51.5234 172.652 51.8828C172.48 52.2344 172.359 52.6367 172.289 53.0898C172.227 53.5352 172.195 54.0039 172.195 54.4961V54.8359C172.195 55.3281 172.227 55.8008 172.289 56.2539C172.352 56.707 172.469 57.1094 172.641 57.4609C172.82 57.8125 173.066 58.0898 173.379 58.293C173.691 58.4961 174.098 58.5977 174.598 58.5977ZM188.086 48.3203V50.7109H180.703V48.3203H188.086ZM182.531 45.1914H185.906V57.1797C185.906 57.5469 185.953 57.8281 186.047 58.0234C186.148 58.2188 186.297 58.3555 186.492 58.4336C186.688 58.5039 186.934 58.5391 187.23 58.5391C187.441 58.5391 187.629 58.5312 187.793 58.5156C187.965 58.4922 188.109 58.4688 188.227 58.4453L188.238 60.9297C187.949 61.0234 187.637 61.0977 187.301 61.1523C186.965 61.207 186.594 61.2344 186.188 61.2344C185.445 61.2344 184.797 61.1133 184.242 60.8711C183.695 60.6211 183.273 60.2227 182.977 59.6758C182.68 59.1289 182.531 58.4102 182.531 57.5195V45.1914ZM203.191 43.9375V61H199.688V43.9375H203.191ZM208.441 43.9375V46.6914H194.52V43.9375H208.441ZM213.797 48.3203V61H210.41V48.3203H213.797ZM210.199 45.0156C210.199 44.5234 210.371 44.1172 210.715 43.7969C211.059 43.4766 211.52 43.3164 212.098 43.3164C212.668 43.3164 213.125 43.4766 213.469 43.7969C213.82 44.1172 213.996 44.5234 213.996 45.0156C213.996 45.5078 213.82 45.9141 213.469 46.2344C213.125 46.5547 212.668 46.7148 212.098 46.7148C211.52 46.7148 211.059 46.5547 210.715 46.2344C210.371 45.9141 210.199 45.5078 210.199 45.0156ZM222.797 48.3203V50.7109H215.414V48.3203H222.797ZM217.242 45.1914H220.617V57.1797C220.617 57.5469 220.664 57.8281 220.758 58.0234C220.859 58.2188 221.008 58.3555 221.203 58.4336C221.398 58.5039 221.645 58.5391 221.941 58.5391C222.152 58.5391 222.34 58.5312 222.504 58.5156C222.676 58.4922 222.82 58.4688 222.938 58.4453L222.949 60.9297C222.66 61.0234 222.348 61.0977 222.012 61.1523C221.676 61.207 221.305 61.2344 220.898 61.2344C220.156 61.2344 219.508 61.1133 218.953 60.8711C218.406 60.6211 217.984 60.2227 217.688 59.6758C217.391 59.1289 217.242 58.4102 217.242 57.5195V45.1914ZM228.281 43V61H224.895V43H228.281ZM236.906 61.2344C235.922 61.2344 235.039 61.0781 234.258 60.7656C233.477 60.4453 232.812 60.0039 232.266 59.4414C231.727 58.8789 231.312 58.2266 231.023 57.4844C230.734 56.7344 230.59 55.9375 230.59 55.0938V54.625C230.59 53.6641 230.727 52.7852 231 51.9883C231.273 51.1914 231.664 50.5 232.172 49.9141C232.688 49.3281 233.312 48.8789 234.047 48.5664C234.781 48.2461 235.609 48.0859 236.531 48.0859C237.43 48.0859 238.227 48.2344 238.922 48.5312C239.617 48.8281 240.199 49.25 240.668 49.7969C241.145 50.3438 241.504 51 241.746 51.7656C241.988 52.5234 242.109 53.3672 242.109 54.2969V55.7031H232.031V53.4531H238.793V53.1953C238.793 52.7266 238.707 52.3086 238.535 51.9414C238.371 51.5664 238.121 51.2695 237.785 51.0508C237.449 50.832 237.02 50.7227 236.496 50.7227C236.051 50.7227 235.668 50.8203 235.348 51.0156C235.027 51.2109 234.766 51.4844 234.562 51.8359C234.367 52.1875 234.219 52.6016 234.117 53.0781C234.023 53.5469 233.977 54.0625 233.977 54.625V55.0938C233.977 55.6016 234.047 56.0703 234.188 56.5C234.336 56.9297 234.543 57.3008 234.809 57.6133C235.082 57.9258 235.41 58.168 235.793 58.3398C236.184 58.5117 236.625 58.5977 237.117 58.5977C237.727 58.5977 238.293 58.4805 238.816 58.2461C239.348 58.0039 239.805 57.6406 240.188 57.1562L241.828 58.9375C241.562 59.3203 241.199 59.6875 240.738 60.0391C240.285 60.3906 239.738 60.6797 239.098 60.9062C238.457 61.125 237.727 61.2344 236.906 61.2344Z" fill="#888888"/>
<path d="M106.688 119H99.1172L99.1641 112.672H106.688C108.25 112.672 109.57 112.297 110.648 111.547C111.742 110.797 112.57 109.68 113.133 108.195C113.711 106.695 114 104.852 114 102.664V101.188C114 99.5469 113.836 98.1094 113.508 96.875C113.195 95.625 112.727 94.5859 112.102 93.7578C111.477 92.9141 110.695 92.2812 109.758 91.8594C108.836 91.4375 107.773 91.2266 106.57 91.2266H98.9766V84.875H106.57C108.883 84.875 111 85.2734 112.922 86.0703C114.859 86.8516 116.531 87.9766 117.938 89.4453C119.359 90.8984 120.453 92.625 121.219 94.625C122 96.6094 122.391 98.8125 122.391 101.234V102.664C122.391 105.07 122 107.273 121.219 109.273C120.453 111.273 119.367 113 117.961 114.453C116.555 115.906 114.891 117.031 112.969 117.828C111.062 118.609 108.969 119 106.688 119ZM103.828 84.875V119H95.6016V84.875H103.828ZM138.586 119.469C136.523 119.469 134.68 119.148 133.055 118.508C131.43 117.852 130.055 116.953 128.93 115.812C127.82 114.672 126.969 113.359 126.375 111.875C125.797 110.391 125.508 108.82 125.508 107.164V106.273C125.508 104.414 125.766 102.695 126.281 101.117C126.797 99.5234 127.562 98.1328 128.578 96.9453C129.594 95.7578 130.867 94.8359 132.398 94.1797C133.93 93.5078 135.711 93.1719 137.742 93.1719C139.539 93.1719 141.148 93.4609 142.57 94.0391C143.992 94.6172 145.195 95.4453 146.18 96.5234C147.18 97.6016 147.938 98.9062 148.453 100.438C148.984 101.969 149.25 103.688 149.25 105.594V108.805H128.531V103.859H141.539V103.25C141.555 102.406 141.406 101.688 141.094 101.094C140.797 100.5 140.359 100.047 139.781 99.7344C139.203 99.4219 138.5 99.2656 137.672 99.2656C136.812 99.2656 136.102 99.4531 135.539 99.8281C134.992 100.203 134.562 100.719 134.25 101.375C133.953 102.016 133.742 102.758 133.617 103.602C133.492 104.445 133.43 105.336 133.43 106.273V107.164C133.43 108.102 133.555 108.953 133.805 109.719C134.07 110.484 134.445 111.141 134.93 111.688C135.43 112.219 136.023 112.633 136.711 112.93C137.414 113.227 138.211 113.375 139.102 113.375C140.18 113.375 141.242 113.172 142.289 112.766C143.336 112.359 144.234 111.688 144.984 110.75L148.57 115.016C148.055 115.75 147.32 116.461 146.367 117.148C145.43 117.836 144.305 118.398 142.992 118.836C141.68 119.258 140.211 119.469 138.586 119.469ZM161.273 113.586L166.266 93.6406H174.586L166.289 119H161.367L161.273 113.586ZM158.32 93.6406L163.242 113.586L163.195 119H158.25L149.977 93.6406H158.32ZM188.883 119.469C186.82 119.469 184.977 119.148 183.352 118.508C181.727 117.852 180.352 116.953 179.227 115.812C178.117 114.672 177.266 113.359 176.672 111.875C176.094 110.391 175.805 108.82 175.805 107.164V106.273C175.805 104.414 176.062 102.695 176.578 101.117C177.094 99.5234 177.859 98.1328 178.875 96.9453C179.891 95.7578 181.164 94.8359 182.695 94.1797C184.227 93.5078 186.008 93.1719 188.039 93.1719C189.836 93.1719 191.445 93.4609 192.867 94.0391C194.289 94.6172 195.492 95.4453 196.477 96.5234C197.477 97.6016 198.234 98.9062 198.75 100.438C199.281 101.969 199.547 103.688 199.547 105.594V108.805H178.828V103.859H191.836V103.25C191.852 102.406 191.703 101.688 191.391 101.094C191.094 100.5 190.656 100.047 190.078 99.7344C189.5 99.4219 188.797 99.2656 187.969 99.2656C187.109 99.2656 186.398 99.4531 185.836 99.8281C185.289 100.203 184.859 100.719 184.547 101.375C184.25 102.016 184.039 102.758 183.914 103.602C183.789 104.445 183.727 105.336 183.727 106.273V107.164C183.727 108.102 183.852 108.953 184.102 109.719C184.367 110.484 184.742 111.141 185.227 111.688C185.727 112.219 186.32 112.633 187.008 112.93C187.711 113.227 188.508 113.375 189.398 113.375C190.477 113.375 191.539 113.172 192.586 112.766C193.633 112.359 194.531 111.688 195.281 110.75L198.867 115.016C198.352 115.75 197.617 116.461 196.664 117.148C195.727 117.836 194.602 118.398 193.289 118.836C191.977 119.258 190.508 119.469 188.883 119.469ZM211.102 83V119H203.18V83H211.102ZM214.992 106.578V106.086C214.992 104.227 215.258 102.516 215.789 100.953C216.32 99.375 217.102 98.0078 218.133 96.8516C219.164 95.6953 220.438 94.7969 221.953 94.1562C223.469 93.5 225.219 93.1719 227.203 93.1719C229.203 93.1719 230.961 93.5 232.477 94.1562C234.008 94.7969 235.289 95.6953 236.32 96.8516C237.352 98.0078 238.133 99.375 238.664 100.953C239.195 102.516 239.461 104.227 239.461 106.086V106.578C239.461 108.422 239.195 110.133 238.664 111.711C238.133 113.273 237.352 114.641 236.32 115.812C235.289 116.969 234.016 117.867 232.5 118.508C230.984 119.148 229.234 119.469 227.25 119.469C225.266 119.469 223.508 119.148 221.977 118.508C220.445 117.867 219.164 116.969 218.133 115.812C217.102 114.641 216.32 113.273 215.789 111.711C215.258 110.133 214.992 108.422 214.992 106.578ZM222.891 106.086V106.578C222.891 107.531 222.961 108.422 223.102 109.25C223.242 110.078 223.477 110.805 223.805 111.43C224.133 112.039 224.578 112.516 225.141 112.859C225.703 113.203 226.406 113.375 227.25 113.375C228.078 113.375 228.766 113.203 229.312 112.859C229.875 112.516 230.32 112.039 230.648 111.43C230.977 110.805 231.211 110.078 231.352 109.25C231.492 108.422 231.562 107.531 231.562 106.578V106.086C231.562 105.164 231.492 104.297 231.352 103.484C231.211 102.656 230.977 101.93 230.648 101.305C230.32 100.664 229.875 100.164 229.312 99.8047C228.75 99.4453 228.047 99.2656 227.203 99.2656C226.375 99.2656 225.68 99.4453 225.117 99.8047C224.57 100.164 224.133 100.664 223.805 101.305C223.477 101.93 223.242 102.656 223.102 103.484C222.961 104.297 222.891 105.164 222.891 106.086ZM250.945 98.5156V128.75H243.047V93.6406H250.406L250.945 98.5156ZM266.508 106.016V106.508C266.508 108.352 266.297 110.062 265.875 111.641C265.453 113.219 264.828 114.594 264 115.766C263.172 116.938 262.141 117.852 260.906 118.508C259.688 119.148 258.273 119.469 256.664 119.469C255.148 119.469 253.844 119.133 252.75 118.461C251.656 117.789 250.742 116.859 250.008 115.672C249.273 114.484 248.68 113.125 248.227 111.594C247.773 110.062 247.414 108.445 247.148 106.742V106.109C247.414 104.281 247.773 102.586 248.227 101.023C248.68 99.4453 249.273 98.0703 250.008 96.8984C250.742 95.7266 251.648 94.8125 252.727 94.1562C253.82 93.5 255.125 93.1719 256.641 93.1719C258.25 93.1719 259.664 93.4766 260.883 94.0859C262.117 94.6953 263.148 95.5703 263.977 96.7109C264.82 97.8359 265.453 99.1875 265.875 100.766C266.297 102.344 266.508 104.094 266.508 106.016ZM258.609 106.508V106.016C258.609 105.031 258.539 104.133 258.398 103.32C258.258 102.492 258.031 101.773 257.719 101.164C257.422 100.555 257.023 100.086 256.523 99.7578C256.023 99.4297 255.406 99.2656 254.672 99.2656C253.828 99.2656 253.117 99.3984 252.539 99.6641C251.977 99.9141 251.523 100.305 251.18 100.836C250.852 101.352 250.617 102 250.477 102.781C250.352 103.547 250.297 104.445 250.312 105.477V107.398C250.281 108.586 250.398 109.633 250.664 110.539C250.93 111.43 251.391 112.125 252.047 112.625C252.703 113.125 253.594 113.375 254.719 113.375C255.469 113.375 256.094 113.203 256.594 112.859C257.094 112.5 257.492 112.008 257.789 111.383C258.086 110.742 258.297 110.008 258.422 109.18C258.547 108.352 258.609 107.461 258.609 106.508ZM277.992 99.0078V119H270.094V93.6406H277.5L277.992 99.0078ZM277.031 105.453L275.227 105.5C275.227 103.719 275.438 102.078 275.859 100.578C276.281 99.0781 276.906 97.7734 277.734 96.6641C278.562 95.5547 279.578 94.6953 280.781 94.0859C282 93.4766 283.406 93.1719 285 93.1719C286.109 93.1719 287.117 93.3438 288.023 93.6875C288.93 94.0156 289.711 94.5391 290.367 95.2578C291.023 95.9609 291.523 96.8828 291.867 98.0234C292.227 99.1484 292.406 100.5 292.406 102.078V119H284.508V103.086C284.508 102.008 284.383 101.195 284.133 100.648C283.898 100.102 283.555 99.7344 283.102 99.5469C282.648 99.3594 282.094 99.2656 281.438 99.2656C280.75 99.2656 280.133 99.4219 279.586 99.7344C279.039 100.047 278.57 100.484 278.18 101.047C277.805 101.594 277.516 102.242 277.312 102.992C277.125 103.742 277.031 104.562 277.031 105.453ZM291.516 105.453L289.312 105.5C289.312 103.719 289.508 102.078 289.898 100.578C290.305 99.0781 290.906 97.7734 291.703 96.6641C292.516 95.5547 293.523 94.6953 294.727 94.0859C295.93 93.4766 297.328 93.1719 298.922 93.1719C300.078 93.1719 301.141 93.3438 302.109 93.6875C303.078 94.0312 303.914 94.5859 304.617 95.3516C305.32 96.1172 305.867 97.1328 306.258 98.3984C306.648 99.6484 306.844 101.195 306.844 103.039V119H298.922V103.039C298.922 101.992 298.797 101.203 298.547 100.672C298.312 100.125 297.969 99.7578 297.516 99.5703C297.062 99.3672 296.523 99.2656 295.898 99.2656C295.148 99.2656 294.5 99.4219 293.953 99.7344C293.406 100.047 292.945 100.484 292.57 101.047C292.211 101.594 291.945 102.242 291.773 102.992C291.602 103.742 291.516 104.562 291.516 105.453ZM323.648 119.469C321.586 119.469 319.742 119.148 318.117 118.508C316.492 117.852 315.117 116.953 313.992 115.812C312.883 114.672 312.031 113.359 311.438 111.875C310.859 110.391 310.57 108.82 310.57 107.164V106.273C310.57 104.414 310.828 102.695 311.344 101.117C311.859 99.5234 312.625 98.1328 313.641 96.9453C314.656 95.7578 315.93 94.8359 317.461 94.1797C318.992 93.5078 320.773 93.1719 322.805 93.1719C324.602 93.1719 326.211 93.4609 327.633 94.0391C329.055 94.6172 330.258 95.4453 331.242 96.5234C332.242 97.6016 333 98.9062 333.516 100.438C334.047 101.969 334.312 103.688 334.312 105.594V108.805H313.594V103.859H326.602V103.25C326.617 102.406 326.469 101.688 326.156 101.094C325.859 100.5 325.422 100.047 324.844 99.7344C324.266 99.4219 323.562 99.2656 322.734 99.2656C321.875 99.2656 321.164 99.4531 320.602 99.8281C320.055 100.203 319.625 100.719 319.312 101.375C319.016 102.016 318.805 102.758 318.68 103.602C318.555 104.445 318.492 105.336 318.492 106.273V107.164C318.492 108.102 318.617 108.953 318.867 109.719C319.133 110.484 319.508 111.141 319.992 111.688C320.492 112.219 321.086 112.633 321.773 112.93C322.477 113.227 323.273 113.375 324.164 113.375C325.242 113.375 326.305 113.172 327.352 112.766C328.398 112.359 329.297 111.688 330.047 110.75L333.633 115.016C333.117 115.75 332.383 116.461 331.43 117.148C330.492 117.836 329.367 118.398 328.055 118.836C326.742 119.258 325.273 119.469 323.648 119.469ZM345.281 99.0547V119H337.383V93.6406H344.789L345.281 99.0547ZM344.344 105.453L342.492 105.5C342.492 103.562 342.727 101.836 343.195 100.32C343.664 98.7891 344.328 97.4922 345.188 96.4297C346.047 95.3672 347.07 94.5625 348.258 94.0156C349.461 93.4531 350.797 93.1719 352.266 93.1719C353.438 93.1719 354.508 93.3438 355.477 93.6875C356.461 94.0312 357.305 94.5859 358.008 95.3516C358.727 96.1172 359.273 97.1328 359.648 98.3984C360.039 99.6484 360.234 101.195 360.234 103.039V119H352.289V103.016C352.289 102 352.148 101.227 351.867 100.695C351.586 100.148 351.18 99.7734 350.648 99.5703C350.117 99.3672 349.469 99.2656 348.703 99.2656C347.891 99.2656 347.203 99.4219 346.641 99.7344C346.078 100.047 345.625 100.484 345.281 101.047C344.953 101.594 344.711 102.242 344.555 102.992C344.414 103.742 344.344 104.562 344.344 105.453ZM377.977 93.6406V99.125H362.695V93.6406H377.977ZM365.906 87.3359H373.805V110.727C373.805 111.398 373.883 111.922 374.039 112.297C374.195 112.656 374.461 112.914 374.836 113.07C375.227 113.211 375.742 113.281 376.383 113.281C376.836 113.281 377.211 113.273 377.508 113.258C377.805 113.227 378.086 113.188 378.352 113.141V118.789C377.68 119.008 376.977 119.172 376.242 119.281C375.508 119.406 374.727 119.469 373.898 119.469C372.211 119.469 370.766 119.203 369.562 118.672C368.375 118.141 367.469 117.305 366.844 116.164C366.219 115.023 365.906 113.539 365.906 111.711V87.3359ZM398.062 101.07L405.305 96.5469C406.273 95.9219 406.867 95.3359 407.086 94.7891C407.32 94.2266 407.438 93.6797 407.438 93.1484C407.438 92.5078 407.203 91.9062 406.734 91.3438C406.281 90.7656 405.641 90.4766 404.812 90.4766C404.203 90.4766 403.688 90.6172 403.266 90.8984C402.859 91.1641 402.547 91.5234 402.328 91.9766C402.125 92.4297 402.023 92.9375 402.023 93.5C402.023 94.2031 402.219 94.9141 402.609 95.6328C403 96.3516 403.516 97.1094 404.156 97.9062C404.812 98.7031 405.539 99.5781 406.336 100.531L422.391 119H413.578L400.5 104.141C399.422 102.766 398.484 101.5 397.688 100.344C396.906 99.1875 396.297 98.0625 395.859 96.9688C395.422 95.875 395.203 94.75 395.203 93.5938C395.203 91.7969 395.594 90.2109 396.375 88.8359C397.172 87.4453 398.289 86.3594 399.727 85.5781C401.18 84.7812 402.883 84.3828 404.836 84.3828C406.648 84.3828 408.219 84.7578 409.547 85.5078C410.891 86.2578 411.93 87.2578 412.664 88.5078C413.398 89.7422 413.766 91.1016 413.766 92.5859C413.766 93.6172 413.57 94.5938 413.18 95.5156C412.789 96.4375 412.25 97.2812 411.562 98.0469C410.891 98.8125 410.117 99.5078 409.242 100.133L401.414 105.594C401.102 105.984 400.844 106.383 400.641 106.789C400.453 107.18 400.312 107.578 400.219 107.984C400.141 108.391 400.102 108.828 400.102 109.297C400.102 110.109 400.273 110.828 400.617 111.453C400.961 112.062 401.414 112.539 401.977 112.883C402.555 113.227 403.18 113.398 403.852 113.398C405.117 113.398 406.336 113.125 407.508 112.578C408.695 112.016 409.758 111.227 410.695 110.211C411.633 109.195 412.375 107.984 412.922 106.578C413.469 105.172 413.742 103.625 413.742 101.938H420.352C420.352 103.781 420.164 105.539 419.789 107.211C419.43 108.867 418.828 110.398 417.984 111.805C417.156 113.211 416.039 114.445 414.633 115.508C414.555 115.555 414.406 115.648 414.188 115.789C413.984 115.914 413.836 116 413.742 116.047C412.102 117.219 410.484 118.086 408.891 118.648C407.297 119.211 405.438 119.492 403.312 119.492C401.016 119.492 399.031 119.078 397.359 118.25C395.703 117.422 394.422 116.281 393.516 114.828C392.609 113.375 392.156 111.711 392.156 109.836C392.156 108.508 392.406 107.352 392.906 106.367C393.406 105.367 394.102 104.445 394.992 103.602C395.883 102.758 396.906 101.914 398.062 101.07ZM452.906 84.875V119H444.68V84.875H452.906ZM463.172 84.875V91.2266H434.648V84.875H463.172ZM476.461 119.469C474.398 119.469 472.555 119.148 470.93 118.508C469.305 117.852 467.93 116.953 466.805 115.812C465.695 114.672 464.844 113.359 464.25 111.875C463.672 110.391 463.383 108.82 463.383 107.164V106.273C463.383 104.414 463.641 102.695 464.156 101.117C464.672 99.5234 465.438 98.1328 466.453 96.9453C467.469 95.7578 468.742 94.8359 470.273 94.1797C471.805 93.5078 473.586 93.1719 475.617 93.1719C477.414 93.1719 479.023 93.4609 480.445 94.0391C481.867 94.6172 483.07 95.4453 484.055 96.5234C485.055 97.6016 485.812 98.9062 486.328 100.438C486.859 101.969 487.125 103.688 487.125 105.594V108.805H466.406V103.859H479.414V103.25C479.43 102.406 479.281 101.688 478.969 101.094C478.672 100.5 478.234 100.047 477.656 99.7344C477.078 99.4219 476.375 99.2656 475.547 99.2656C474.688 99.2656 473.977 99.4531 473.414 99.8281C472.867 100.203 472.438 100.719 472.125 101.375C471.828 102.016 471.617 102.758 471.492 103.602C471.367 104.445 471.305 105.336 471.305 106.273V107.164C471.305 108.102 471.43 108.953 471.68 109.719C471.945 110.484 472.32 111.141 472.805 111.688C473.305 112.219 473.898 112.633 474.586 112.93C475.289 113.227 476.086 113.375 476.977 113.375C478.055 113.375 479.117 113.172 480.164 112.766C481.211 112.359 482.109 111.688 482.859 110.75L486.445 115.016C485.93 115.75 485.195 116.461 484.242 117.148C483.305 117.836 482.18 118.398 480.867 118.836C479.555 119.258 478.086 119.469 476.461 119.469ZM503.625 111.875C503.625 111.438 503.477 111.062 503.18 110.75C502.898 110.422 502.398 110.125 501.68 109.859C500.961 109.578 499.953 109.297 498.656 109.016C497.422 108.75 496.258 108.398 495.164 107.961C494.086 107.523 493.141 106.992 492.328 106.367C491.516 105.742 490.875 105 490.406 104.141C489.953 103.281 489.727 102.297 489.727 101.188C489.727 100.109 489.953 99.0938 490.406 98.1406C490.875 97.1719 491.555 96.3203 492.445 95.5859C493.352 94.8359 494.453 94.25 495.75 93.8281C497.047 93.3906 498.523 93.1719 500.18 93.1719C502.461 93.1719 504.43 93.5234 506.086 94.2266C507.742 94.9141 509.016 95.8828 509.906 97.1328C510.812 98.3672 511.266 99.7969 511.266 101.422H503.367C503.367 100.781 503.258 100.234 503.039 99.7812C502.836 99.3281 502.5 98.9844 502.031 98.75C501.562 98.5 500.938 98.375 500.156 98.375C499.609 98.375 499.109 98.4766 498.656 98.6797C498.219 98.8828 497.867 99.1641 497.602 99.5234C497.336 99.8828 497.203 100.305 497.203 100.789C497.203 101.133 497.281 101.445 497.438 101.727C497.609 101.992 497.867 102.242 498.211 102.477C498.555 102.695 498.992 102.898 499.523 103.086C500.055 103.258 500.695 103.414 501.445 103.555C503.148 103.867 504.742 104.312 506.227 104.891C507.711 105.469 508.914 106.289 509.836 107.352C510.773 108.414 511.242 109.844 511.242 111.641C511.242 112.766 510.984 113.805 510.469 114.758C509.953 115.695 509.211 116.523 508.242 117.242C507.273 117.945 506.109 118.492 504.75 118.883C503.391 119.273 501.859 119.469 500.156 119.469C497.734 119.469 495.688 119.039 494.016 118.18C492.344 117.305 491.078 116.211 490.219 114.898C489.375 113.57 488.953 112.227 488.953 110.867H496.312C496.344 111.648 496.531 112.289 496.875 112.789C497.234 113.289 497.711 113.656 498.305 113.891C498.898 114.125 499.586 114.242 500.367 114.242C501.086 114.242 501.68 114.141 502.148 113.938C502.633 113.734 503 113.461 503.25 113.117C503.5 112.758 503.625 112.344 503.625 111.875ZM528.305 93.6406V99.125H513.023V93.6406H528.305ZM516.234 87.3359H524.133V110.727C524.133 111.398 524.211 111.922 524.367 112.297C524.523 112.656 524.789 112.914 525.164 113.07C525.555 113.211 526.07 113.281 526.711 113.281C527.164 113.281 527.539 113.273 527.836 113.258C528.133 113.227 528.414 113.188 528.68 113.141V118.789C528.008 119.008 527.305 119.172 526.57 119.281C525.836 119.406 525.055 119.469 524.227 119.469C522.539 119.469 521.094 119.203 519.891 118.672C518.703 118.141 517.797 117.305 517.172 116.164C516.547 115.023 516.234 113.539 516.234 111.711V87.3359ZM539.789 93.6406V119H531.867V93.6406H539.789ZM531.398 87.1016C531.398 85.9766 531.805 85.0547 532.617 84.3359C533.43 83.6172 534.484 83.2578 535.781 83.2578C537.078 83.2578 538.133 83.6172 538.945 84.3359C539.758 85.0547 540.164 85.9766 540.164 87.1016C540.164 88.2266 539.758 89.1484 538.945 89.8672C538.133 90.5859 537.078 90.9453 535.781 90.9453C534.484 90.9453 533.43 90.5859 532.617 89.8672C531.805 89.1484 531.398 88.2266 531.398 87.1016ZM552.422 99.0547V119H544.523V93.6406H551.93L552.422 99.0547ZM551.484 105.453L549.633 105.5C549.633 103.562 549.867 101.836 550.336 100.32C550.805 98.7891 551.469 97.4922 552.328 96.4297C553.188 95.3672 554.211 94.5625 555.398 94.0156C556.602 93.4531 557.938 93.1719 559.406 93.1719C560.578 93.1719 561.648 93.3438 562.617 93.6875C563.602 94.0312 564.445 94.5859 565.148 95.3516C565.867 96.1172 566.414 97.1328 566.789 98.3984C567.18 99.6484 567.375 101.195 567.375 103.039V119H559.43V103.016C559.43 102 559.289 101.227 559.008 100.695C558.727 100.148 558.32 99.7734 557.789 99.5703C557.258 99.3672 556.609 99.2656 555.844 99.2656C555.031 99.2656 554.344 99.4219 553.781 99.7344C553.219 100.047 552.766 100.484 552.422 101.047C552.094 101.594 551.852 102.242 551.695 102.992C551.555 103.742 551.484 104.562 551.484 105.453ZM587.695 93.6406H594.867V118.016C594.867 120.359 594.328 122.344 593.25 123.969C592.172 125.609 590.664 126.852 588.727 127.695C586.805 128.555 584.555 128.984 581.977 128.984C580.836 128.984 579.672 128.836 578.484 128.539C577.297 128.258 576.188 127.836 575.156 127.273C574.125 126.711 573.258 126.016 572.555 125.188L575.859 120.547C576.5 121.266 577.305 121.875 578.273 122.375C579.242 122.891 580.383 123.148 581.695 123.148C582.836 123.148 583.789 122.945 584.555 122.539C585.336 122.133 585.93 121.539 586.336 120.758C586.742 119.992 586.945 119.062 586.945 117.969V99.6406L587.695 93.6406ZM570.844 106.625V106.133C570.844 104.211 571.078 102.461 571.547 100.883C572.031 99.2891 572.719 97.9219 573.609 96.7812C574.516 95.625 575.609 94.7344 576.891 94.1094C578.172 93.4844 579.617 93.1719 581.227 93.1719C582.961 93.1719 584.383 93.5078 585.492 94.1797C586.617 94.8359 587.516 95.7578 588.188 96.9453C588.875 98.1328 589.406 99.5234 589.781 101.117C590.172 102.695 590.5 104.398 590.766 106.227V106.812C590.5 108.531 590.133 110.156 589.664 111.688C589.211 113.203 588.617 114.547 587.883 115.719C587.148 116.891 586.227 117.812 585.117 118.484C584.023 119.141 582.711 119.469 581.18 119.469C579.586 119.469 578.148 119.148 576.867 118.508C575.602 117.867 574.516 116.969 573.609 115.812C572.719 114.656 572.031 113.297 571.547 111.734C571.078 110.172 570.844 108.469 570.844 106.625ZM578.742 106.133V106.625C578.742 107.578 578.828 108.461 579 109.273C579.188 110.086 579.469 110.805 579.844 111.43C580.219 112.039 580.68 112.516 581.227 112.859C581.789 113.203 582.445 113.375 583.195 113.375C584.336 113.375 585.258 113.133 585.961 112.648C586.664 112.164 587.172 111.477 587.484 110.586C587.797 109.695 587.93 108.648 587.883 107.445V105.594C587.914 104.562 587.844 103.656 587.672 102.875C587.5 102.078 587.227 101.414 586.852 100.883C586.492 100.352 586.008 99.9531 585.398 99.6875C584.805 99.4062 584.086 99.2656 583.242 99.2656C582.508 99.2656 581.859 99.4375 581.297 99.7812C580.734 100.125 580.266 100.609 579.891 101.234C579.516 101.844 579.227 102.57 579.023 103.414C578.836 104.242 578.742 105.148 578.742 106.133Z" fill="black"/>
<path d="M1134 0H1348C1356.28 0 1363 6.71573 1363 15V148C1363 156.284 1356.28 163 1348 163H1134V0Z" fill="#28EEA7"/>
<path d="M1220.17 104.167H1276.83" stroke="white" stroke-width="5" stroke-linecap="round" stroke-linejoin="round"/>
<path d="M1240 75.8334L1245.67 81.5L1257 70.1667" stroke="white" stroke-width="5" stroke-linecap="round" stroke-linejoin="round"/>
<path d="M1268.33 58.8333H1228.67C1225.54 58.8333 1223 61.3704 1223 64.5V87.1666C1223 90.2963 1225.54 92.8333 1228.67 92.8333H1268.33C1271.46 92.8333 1274 90.2963 1274 87.1666V64.5C1274 61.3704 1271.46 58.8333 1268.33 58.8333Z" stroke="white" stroke-width="5" stroke-linecap="round" stroke-linejoin="round"/>
</svg>
